<svg xmlns='http://www.w3.org/2000/svg'>
  <symbol id="icon-attack" viewBox="0 0 512 512">
    <path fill="#aaa" d="M45.773-1.58l-.072.275h1.09c-.337-.09-.682-.188-1.017-.275zm-28.43 18.963
    V51.46c19.897 34.454 44.06 69.077 77.686 99.577 6.936 24.534 23.59 43.637 46.226 53.85v-.008c
    -5.885-8.19-9.39-18.102-9.584-30.097 12.07.163 21.906 3.716 30.1 9.588-10.022-22.422-28.7-38.966
    -52.883-46.01C68.625 102.25 42.263 59.577 19.87 17.382h-2.526zm26.952 0C98.647 32.315 173.468
    71.74 240.527 124.45l16.278-11.555C205.6 71.815 149.63 38.578 99.975 17.383h-55.68zm110.06 0
    c28.402 8.136 52.815 19.562 75.33 32.826 13.042 21.96 34.095 36.143 58.635 40.155-7.798-6.388
    -13.742-15.053-17.033-26.584 11.7-2.98 22.12-2.09 31.555 1.458-15.497-19.08-37.847-30.23-63.06
    -30.758-10.274-6.072-21-11.82-32.317-17.097h-53.11zM288.32 90.365l.012.01.002-.008c-.005 0-.01
    0-.014-.002zm37.334-68.023l-4.633 49.273c-.014 0-.028-.004-.043-.006l-18.137 31.413
    c.037.05.076.097.113.147l-31.146 22.107-.073-.062-9.515 6.754 39.616 22.876.047-.018.006.004
    38.305-13.883c37.3 28.674 84.672 43.582 133.49 39.767-21.153-44.63-57.795-78.24-101.46-96.04
    l-7.022-39.503-39.55-22.832zM194.91 148.834l-17.226 46.404-.045-.017-25.65 25.65c.022.055.046
    .11.07.165l-46.69 17.332 32.296 32.297 40.596-3.49c28.606 37.346 70.505 64.008 118.644 72.96
    -8.882-48.582-35.574-90.534-73.144-119.03l3.44-39.975-32.292-32.296zm123.332 19.943l-18.217
    6.602-4.304-2.487c17.836 17.583 34.275 36.046 48.592 55.097 1.07 24.403 12.092 46.127 30.635
    61.29-3.563-9.432-4.385-19.913-1.463-31.55 11.625 3.273 20.2 9.256 26.596 17.045-4.058-25.375
    -18.94-46.994-42.234-59.9-12.03-15.88-25.347-31.29-39.604-46.098zm-300.898 78.41v49.76c14.048
    24.524 33.504 44.45 56.984 60.963 12.88 23.576 34.676 38.807 60.264 42.99-7.803-6.385-13.75
    -15.052-17.043-26.584 11.7-2.98 22.12-2.095 31.555 1.457-14.967-18.427-36.325-29.457-60.476
    -30.666-35.613-23.867-60.18-54.168-71.286-97.92zM134.592 400.9s.003 0 .004.002l.002-.002
    h-.006zm306.69-151.87l-28.647 40.355-.035-.026-31.414 18.138.023.182-49.587 4.66 22.834 39.55
    40.115 7.13c17.964 43.483 51.537 80.08 95.723 101.185 3.997-49.232-10.932-96.66-39.85
    -133.908l13.67-37.72-22.834-39.548zm-269.366 83.84l-4.63 49.284c-.017 0-.032-.004-.048-.006
    l-18.136 31.414c.035.048.073.093.11.14l-40.61 28.82 39.552 22.843 38.305-13.877c37.297 28.67
    84.672 43.58 133.49 39.766-21.153-44.63-57.796-78.24-101.462-96.04l-7.023-39.507-39.55
    -22.836z"></path>
  </symbol>
  <symbol id="icon-fortify" viewBox="0 0 512 512">
    <path fill="#aaa" d="M18.78 25.97c2.6 25.278 9.316 48.72 19.532 69.75l-21.218-6.564L73.53 146.72
    l-.843-1.782c16.737 17.29 36.797 31.38 59.438 41.593-13.546-18.845-21.597-41.677-22.03-69.28
    27.78.35 50.396 8.56 69.25 22.063-.627-1.4-1.284-2.776-1.94-4.157l.72.625-34.438-86.655-2.53
    33.844c-30.974-31.598-73.044-52.084-122.376-57zm236.814 31.593L217.22 160.875c-30.663 7.52
    -54.566 32.236-60.907 63.344l-.188-.22-106.563 39.563 74.313 74.312 93-8.03.375-.033 23.03
    -2.468-77.31-94.938 13.28-13.28 89.406 109.75 10.875 13.374-17.124 1.844-28.22 3.03c14.52 17.126
    30.304 33.143 47.22 47.907 7.62-56.784 52.175-102.042 108.625-110.717-14.72-16.738-30.68-32.346
    -47.75-46.688l-2.78 26.125-1.844 17.125L321.28 270l-107.874-88.03 13.25-13.25 93.094 75.905
    2.22-20.844 7.905-91.936-74.28-74.28zM401.53 301.625c-8.783.408-17.306 1.827-25.436 4.156l13.875
    16.908c7.51-2.534 15.37-4.323 23.467-5.282-3.863-5.344-7.814-10.62-11.906-15.78zm-43.78 11.25c
    -7.323 3.61-14.204 7.994-20.5 13.063l15.75 17.28c5.92-4.876 12.318-9.16 19.125-12.812l-14.375
    -17.53zm68 22.438c-7.92.117-15.616 1.157-22.97 3.03l14.5 17.688c6.108-1.82 12.447-3.043 18.97
    -3.686-3.387-5.76-6.865-11.445-10.5-17.03zm-102.03 3.53c-6.713 7.584-12.4 16.116-16.845 25.344
    l17.313 14.125c4.28-7.958 9.44-15.37 15.375-22.093l-15.844-17.376zm60.467 6.282c-6.67 3.247
    -12.908 7.267-18.625 11.875l16.282 17.875c5.34-4.382 11.15-8.233 17.312-11.47l-14.97-18.28zm-32
    24.938c-5.204 6.153-9.673 12.96-13.25 20.28l17.97 14.688c3.305-6.06 7.202-11.76 11.624-17l
    -16.342-17.967zm94.094.218v.22c-45.915 0-82.96 36.985-83.06 82.875 39.248 20.8 81.966 35.93
    127.06 44.313-8.284-45.328-23.3-88.145-44-127.407zM299.94 382.626c-2.38 8.6-3.743 17.625-3.97
    26.938 4.937 3.885 9.96 7.664 15.063 11.343.93-8.58 2.75-16.88 5.44-24.812l-16.533-13.47zm32.156
    26.25c-2 7.785-3.073 15.96-3.094 24.375 5.28 3.43 10.632 6.727 16.063 9.938.72-6.992 2.156
    -13.776 4.218-20.282l-17.186-14.03z"></path>
  </symbol>
  <symbol id="icon-fortify-away" viewBox="0 0 512 512">
    <path fill="#aaa" d="M18.78 25.97c2.6 25.278 9.316 48.72 19.532 69.75l-21.218-6.564L73.53 146.72
    l-.843-1.782c16.737 17.29 36.797 31.38 59.438 41.593-13.546-18.845-21.597-41.677-22.03-69.28
    27.78.35 50.396 8.56 69.25 22.063-.627-1.4-1.284-2.776-1.94-4.157l.72.625-34.438-86.655-2.53
    33.844c-30.974-31.598-73.044-52.084-122.376-57zm236.814 31.593L217.22 160.875c-30.663 7.52
    -54.566 32.236-60.907 63.344l-.188-.22-106.563 39.563 74.313 74.312 93-8.03.375-.033 23.03
    -2.468-77.31-94.938 13.28-13.28 89.406 109.75 10.875 13.374-17.124 1.844-28.22 3.03c14.52 17.126
    30.304 33.143 47.22 47.907 7.62-56.784 52.175-102.042 108.625-110.717-14.72-16.738-30.68-32.346
    -47.75-46.688l-2.78 26.125-1.844 17.125L321.28 270l-107.874-88.03 13.25-13.25 93.094 75.905
    2.22-20.844 7.905-91.936-74.28-74.28zM401.53 301.625c-8.783.408-17.306 1.827-25.436 4.156l13.875
    16.908c7.51-2.534 15.37-4.323 23.467-5.282-3.863-5.344-7.814-10.62-11.906-15.78zm-43.78 11.25c
    -7.323 3.61-14.204 7.994-20.5 13.063l15.75 17.28c5.92-4.876 12.318-9.16 19.125-12.812l-14.375
    -17.53zm68 22.438c-7.92.117-15.616 1.157-22.97 3.03l14.5 17.688c6.108-1.82 12.447-3.043 18.97
    -3.686-3.387-5.76-6.865-11.445-10.5-17.03zm-102.03 3.53c-6.713 7.584-12.4 16.116-16.845 25.344
    l17.313 14.125c4.28-7.958 9.44-15.37 15.375-22.093l-15.844-17.376zm60.467 6.282c-6.67 3.247
    -12.908 7.267-18.625 11.875l16.282 17.875c5.34-4.382 11.15-8.233 17.312-11.47l-14.97-18.28zm-32
    24.938c-5.204 6.153-9.673 12.96-13.25 20.28l17.97 14.688c3.305-6.06 7.202-11.76 11.624-17l
    -16.342-17.967zm94.094.218v.22c-45.915 0-82.96 36.985-83.06 82.875 39.248 20.8 81.966 35.93
    127.06 44.313-8.284-45.328-23.3-88.145-44-127.407zM299.94 382.626c-2.38 8.6-3.743 17.625-3.97
    26.938 4.937 3.885 9.96 7.664 15.063 11.343.93-8.58 2.75-16.88 5.44-24.812l-16.533-13.47zm32.156
    26.25c-2 7.785-3.073 15.96-3.094 24.375 5.28 3.43 10.632 6.727 16.063 9.938.72-6.992 2.156
    -13.776 4.218-20.282l-17.186-14.03z"></path>
  </symbol>
  <symbol id="icon-reinforce" viewBox="0 0 512 512">
    <path fill="#aaa" d="M19.188 17.5v152.063C66.86 258.63 151.98 320.656 248.28 341.092c7.287 2.303 15.034 3.563 23.064 3.563 6.747 0 13.288-.884 19.53-2.53-47.547 33.525-105.556 53.155-168.187 53.155-36.77 0-71.258-7.8-103.5-20.342v35.625c39.863 9.25 78.667 13.034 114.188 10.812 22.572-1.413 43.213-4.7 63.063-10.53-45.634 33.337-107.435 50.03-177.25 49.686v29.44c6.82.457 13.417.874 20.343.874 132.277 0 245.515-77.08 300.283-188.28.174-.357.357-.708.53-1.064.236-.48.463-.953.688-1.438-.046.417-.076.835-.124 1.25-7.255 62.57-34.964 122.59-82.937 170.563-7.697 7.696-15.647 14.944-23.94 21.594h104.595c28.33-57.514 37.687-120.485 29.125-180.72-3.284-23.093-8.64-45.25-16.938-67.188 53.172 71.838 78.54 160.38 71.47 247.907h73.374C492.68 363.235 416.173 252.043 305.406 199c-.273-.13-.538-.276-.812-.406-1.12-.54-2.227-1.045-3.375-1.53-.6-.278-1.183-.573-1.783-.845.102.086.21.16.313.25-4.324-1.73-8.834-3.08-13.5-4 61.317-7.77 125.604 3.935 183.25 37.218 8.896 5.135 17.562 10.86 25.656 16.78v-94.655c-22.682-5.175-45.22-7.668-68.125-7.97-66.77-.874-133.078 18.29-189.186 54.876-9.19 4.476-17.36 10.758-24.063 18.343 24.015-56.973 66.21-107.004 123.69-140.188 49.576-28.623 104.276-41.016 157.686-39V17.5h-118.78c-41.383 17.778-79.457 43.683-111.282 75.656 16.34-27.53 36.19-52.736 58.594-75.656h-42.032c-60.804 67.31-91.872 156.46-87 245.656-.093 1.544-.156 3.09-.156 4.656 0 14.815 4.25 28.65 11.563 40.407-47.44-37.913-83.766-90.83-100.625-153.75-12.45-46.46-12.248-92.975-2.657-136.97H19.188zm252.156 192.188c32.223 0 58.156 25.902 58.156 58.125 0 32.222-25.933 58.156-58.156 58.156-11.938 0-23.007-3.57-32.22-9.69 6.202 3.168 13.23 4.97 20.72 4.97 25.67 0 46.438-20.802 46.437-46.47.003-23.096-16.51-42.202-38.592-45.81 10.03 6.777 17 18.396 17 31.405 0 20.813-17.123 37.313-37.938 37.313-13.864 0-25.89-7.378-32.438-18.532-.72-3.67-1.125-7.457-1.125-11.344 0-32.223 25.934-58.125 58.157-58.125z"></path>
  </symbol>
  <symbol id="icon-end-turn" viewBox="0 0 512 512">
    <path fill="#aaa" d="M241.844 28.625l-21.188 5.063L33.25 78.53l-9.594 2.282 2.813 9.47 54.718 184.03 6.156 20.782 10.875-18.75 36.624-63.125 39.344 22.655 9.375-16.188-47.47-27.312L128 187.72l-4.656 8.06-30.406 52.47-45.75-153.844 156.625-37.47-30.344 52.345-4.69 8.126 8.126 4.656L332.75 211.75l-17.594 30.344 16.22 9.312 22.25-38.375 4.687-8.124-8.125-4.656-155.844-89.688 36.594-63.093 10.906-18.845zm-28.25 176.47l-57.438 99.31 155.22 89.5 8.093 4.658-4.69 8.093-44.06 76.25 218.81-52.5-63.874-215.47-44.094 76.25-4.656 8.064-8.094-4.656-155.218-89.5z"></path>
  </symbol>
  <symbol id="icon-explosion-large" viewBox="0 0 512 512">
    <path fill="#aaa" d="M59.395 20.285l109.447 137.043L18.89 98.084 143.737 246.75 36.975
    338.582l137.287-12.72-31.457 160.187 112.27-115.142 83.08 101.588-8.58-127.873 165.988
    -22.76-141.383-74.597 141.04-56.778v-67.236L388.605 189.18l106.5-128.567L292.05 160.55
    240.98 40.616l-53.037 90.26L126.63 20.285H59.396zm280.996 0l-25.812 98.61 93.05-98.61H340.39z
    M219.8 169.29l35.042 59.308-72.737-30.795c4.267-16.433 18.46-27.994 37.696-28.512zm104.62
    1.77c16.857 9.28 24.173 26.062 20.428 42.62l-18.866-8.112-35.28 17.522 15.986-26.145-11.715
    -6.8 29.447-19.086zm-65.5 18.872l24.332 4.218-11.7 37.862-12.632-42.08zm-16.12 58.87l-1.208
    21.895 22.87 2.412-38.76 54.28c-34.81-3.42-53.307-34.73-38.737-71.263L242.8 248.8zm32.034
    18.862l51.99 16.72c2.035 11.373-2.796 20.542-13.455 24.466l7.767 8.576c-4.758 13.162-16.607
    18.498-31.276 12.222l-4.9-47.962-10.126-14.022zm-143.688 85.15L74.613 396.34l-26-15.01-24.95
    43.213 43.216 24.95 21.698-37.585 42.568-59.094zm223.293 10.32l85.85 81.178 11.68 42.05 39.712
    -12.266-12.264-33.287 19.857-36.796-39.13 10.513-105.706-51.392z"></path>
  </symbol>
  <symbol id="icon-explosion-small" viewBox="0 0 512 512">
    <path fill="#aaa" d="M55.25 16.53l28.844 52.876 8.125 38.75-35.314-5.53-38.625-13.97v19.875l39.94 14.44 17.31 16.905-42.78 43.406 52-8.843 18.906 56.782-8.687 102.81-13.47 32.19-11.406-6.97-51.813-64.188v29.75l37.564 46.563L65.97 389.53 18 416.564l49.344 6.406-22 42.467 40.53-18.218 16.69 43.092 8.75-41.812 42.936 15.438-18.406-35.782 63.97 1.313-56-31.314L158 388.062l73.938-19.437 36.812-.156-46.03 72.75 77.25-41.5 33.124 91.874 22.812-83.813 56.22 54.19-13.22-82.564 53.375-2.562-45.936-37.906 81.406-53.594-86.813 4.562-14.187-89.5-39.844 80.25-44.594-64.844-22.062-98.468 84.625-18.72-15.938 26.095 38.188-13.032 10.188 45.75 24.78-36.407 39.438 18.44-14.405-36.532 38.594-10.47-43.564-19 20.406-33.874L422.22 51.47l-29.314-32.282-3.97 39.874-46.186-9.28 24.844 29.124-91.406 20.22-18.5-82.595H238.53l19.407 86.626-13.75 3.063-59.343 2 33-88.064-56.594 59.22L139.03 22l-11.905 65.97-23.47-21.69-27.124-49.75H55.25zM262 121.376l22.938 102.438-2.47 69.843-93.5-16.75 66.532 53.25-46.906 25.25-59.844 15.75-26.063-.25-9.187-34.156 9.813-116.125 15.5-32.875 39.343 33.438-5.062-45.25 58.625 16.812-42.94-41.656 56.126-25.938 17.094-3.78z"></path>
  </symbol>
</svg>
